<?xml version="1.0" encoding="utf-8"?>
<!-- Generator: Adobe Illustrator 26.0.3, SVG Export Plug-In . SVG Version: 6.00 Build 0)  -->
<svg version="1.1" id="Layer_1" xmlns="http://www.w3.org/2000/svg" xmlns:xlink="http://www.w3.org/1999/xlink" x="0px" y="0px"
	 viewBox="0 0 1388.7 1289" style="enable-background:new 0 0 1388.7 1289;" xml:space="preserve">
<style type="text/css">
	.st0{fill:#ECE4F3;}
	.st1{fill:#D9C9E8;}
	.st2{fill:#F2E6FD;}
	.st3{fill:#B393D1;}
	.st4{opacity:0.95;fill:url(#SVGID_1_);enable-background:new    ;}
	.st5{fill:none;stroke:#FFC300;stroke-width:2;stroke-dasharray:4,4;}
	.st6{fill:#181C23;}
	.st7{display:none;opacity:0.2;}
	.st8{fill:#F4F2F5;}
	.st9{fill:#FFFFFF;stroke:#E2E2E2;stroke-miterlimit:10;}
	.st10{fill:#CB9BF7;}
	.st11{fill:none;stroke:#208261;}
	.st12{fill:#FFE48E;}
	.st13{fill:#E5E3E6;}
	.st14{fill:#FFD039;}
	.st15{fill:none;stroke:#D1520B;}
	.st16{fill:none;stroke:#F94B15;stroke-width:2;stroke-dasharray:4,4;}
	.st17{clip-path:url(#SVGID_00000117661195309830831770000003023858757793324171_);}
	.st18{fill:#FFF2C6;}
	.st19{fill:#FFC300;}
	.st20{fill:#8D5DBA;}
	.st21{fill:#540C97;}
	.st22{fill:#F94B15;}
	.st23{fill:#DEC0FA;}
	.st24{fill:#FA7349;}
	.st25{fill:#FA5F2F;}
	.st26{fill:#C48EF6;}
	.st27{fill:#E5CDFB;}
	.st28{fill:#FFECD8;}
	.st29{fill:#B277E9;}
	.st30{fill:#440C78;}
	.st31{fill:none;stroke:#DFBCFF;stroke-linecap:round;}
	.st32{fill:none;stroke:#D1760B;stroke-linecap:round;}
	.st33{fill:none;stroke:#A56BDA;stroke-linecap:round;}
	.st34{fill:none;stroke:#7C40B5;stroke-linecap:round;}
	.st35{fill:none;stroke:#F0AB61;stroke-linecap:round;}
	.st36{fill:#FFDCB8;}
	.st37{fill:#EB5223;}
	.st38{fill:none;stroke:#FFAC92;stroke-linecap:round;}
	.st39{fill:#C1B3B3;}
	.st40{fill:none;stroke:#B12F07;stroke-linecap:round;}
	.st41{fill:#CC510C;}
	.st42{fill:none;stroke:#FCBD99;stroke-linecap:round;}
	.st43{fill:#22BA87;}
	.st44{fill:#FFCA1C;}
	.st45{fill:none;stroke:#2623BE;}
	.st46{fill:none;stroke:#DB9751;stroke-linecap:round;}
	.st47{fill:#E8B40A;}
	.st48{fill:none;stroke:#F9E8B2;stroke-linecap:round;}
	.st49{fill:#CE4115;}
	.st50{fill:#AF310A;}
</style>
<path class="st0" d="M356,1152.5l-18-9l182.5-59l157.5,40l56,65.5c4.5,7.5-61.5-23.5-103.5-33.5c-49.7-11.8-90.5-13-161.5-4
	c-56.8,7.2-89,5.7-98,4L356,1152.5z"/>
<path class="st1" d="M569.5,1131c-27,0-110.2,7-152,13l97.5-30l112-7l76,28l166.5,111l88,11.5c-28.7,10.2-86.4,20.7-116,17.5
	c-37-4-70-36.5-112.5-79.5C686.2,1152.2,610.7,1131,569.5,1131z"/>
<path class="st1" d="M293,829.5c7.6,30.4-15.2,88-27.5,113l58-55L356,788L192,567.5c-3.3,12.2-8.3,46.5-11.5,66.5
	c-4,25,5.5,55.5,45,98S283.5,791.5,293,829.5z"/>
<path class="st2" d="M785.9,228.1c-22.4,21.6-87.3,13-117,6c25.3,11.3,84.2,33.4,117,31c41-3,69-76,74-94c4-14.4,41.7-74.7,60-103
	l239.3,213.3L982.5,35.6c-6.7-8.6-14.8-16.8-22.7-22.5c-10.2-7.3-24.1-7.1-34.1,0.6c-20.2,15.7-52.4,49.6-68.9,91.5
	C841.4,144.6,831.5,184.1,785.9,228.1z"/>
<path class="st3" d="M891.6,89.5c5.7-8.6,11.9-16.2,18.3-22.7c23.2-23.6,61.9-21.5,82.6,4.4l171.3,214.6l-265.3-44.3l-142,58l-77-58
	c16.3,2.7,53.5,9,98,6C831,243.9,877.2,111.4,891.6,89.5z"/>
<linearGradient id="SVGID_1_" gradientUnits="userSpaceOnUse" x1="896.027" y1="644.382" x2="240.9229" y2="170.327" gradientTransform="matrix(1 0 0 -1 0 1290)">
	<stop  offset="0" style="stop-color:#540C97"/>
	<stop  offset="1" style="stop-color:#F94B15;stop-opacity:0.9"/>
</linearGradient>
<path class="st4" d="M1293.3,539.9l18.1,11.5c14.2,9,26.9,20.2,37.3,33.5c64.6,82.4,49.4,205.4-39.6,268.6
	c-57.8,41-108.7,105.8-150,151.8c-8.1,9-15.1,19-20.8,29.7c-43.9,82.1-107.4,226.1-218.9,228c-120,2-165-106.9-277-134.9
	s-244,61-337,14.9c-107.8-53.4-70.5-196.9-10-292.3c72-113.6-73.4-148.9-98-241.7c-23-86.9,12.5-146.9,76-170
	c41-14.9,178-24.3,244-86c34.4-32.1,35.5-85.6,112-112c58-20,122,42,178,10c53.8-30.8,40.2-51.9,112-138c52-62.3,110,42,204,128
	c81.5,74.6,71.2,128.8,109.9,226.6C1245.2,497.3,1266.2,522.7,1293.3,539.9z"/>
<path class="st5" d="M378.7,886c20.3,26,54,84.4,26,110c-35,32-67.8,20.5-156,35c-97,16-80,70-54,109c34.5,51.8,112,219-43,114
	c-124-84-132.3-183.7-121-223"/>
<path class="st6" d="M783.2,1052.5l5-6h23l1,21l-26.5,0.5v-3c-23.5,3-46.5,3-49,0c-2.6-3.1-3-8.8,3.5-12.5c3.1-1.7,12-4.5,17.5-4.5
	C762.5,1048,777.2,1050.8,783.2,1052.5z"/>
<path d="M796.7,1068c10,0,12.5-2.2,15.5-3.5l-1-18.5h-5.5c-2.2,1.2-7.1,3.9-9.5,5.5c-3,2-4.5,5-6,7.5s-3,5.5-0.5,8l1.5,1h3.5H796.7z
	"/>
<path class="st6" d="M840.9,1053l5-6h23l1,21l-26.5,0.5v-3c-23.5,3-46.5,3-49,0c-2.6-3.1-3-8.8,3.5-12.5c3.1-1.7,12-4.5,17.5-4.5
	C820.2,1048.5,834.9,1051.3,840.9,1053z"/>
<g class="st7">
	
		<image style="display:inline;overflow:visible;" width="810" height="676" xlink:href="C8C4E0058F38A317.png"  transform="matrix(1 0 0 1 61.6633 370)">
	</image>
</g>
<g>
	<path class="st8" d="M133.7,556.2c0-4.9,3.6-9.1,8.4-9.9l646-103.5c6.1-1,11.6,3.7,11.6,9.9v493.8c0,5.7-4.8,10.3-10.5,10l-646-32
		c-5.3-0.3-9.5-4.7-9.5-10V556.2z"/>
</g>
<path class="st9" d="M133.7,571l666-92v495l-666-29.4V571z"/>
<path class="st10" d="M228.7,827.2l528-23.2v125l-528-7.4V827.2z"/>
<path class="st11" d="M189.2,934v-94.1l591-23.4v125L189.2,934z"/>
<path class="st12" d="M177.7,812V637.7l296-45.7v204.5L177.7,812z"/>
<path class="st13" d="M219.6,619.6l-36.4,5.3c-4.2,0.6-8-2.3-8.5-6.5c-0.5-3.9,2.2-7.5,6-8.2l36.1-7c4.8-0.9,9.3,2.4,9.9,7.2
	C227.3,614.8,224.1,618.9,219.6,619.6z"/>
<path class="st13" d="M554,571.1l-53,7.5c-4.8,0.7-9.2-2.7-9.8-7.5c-0.5-4.5,2.5-8.7,7-9.6l52.7-9.7c5.5-1,10.8,2.9,11.4,8.4
	C563,565.6,559.3,570.4,554,571.1z"/>
<path class="st13" d="M492.7,681v-92.7l277-24.3v108.7L492.7,681z"/>
<path class="st14" d="M290,755.7l2.2-82.2L442.3,660l-2.4,86.5L290,755.7z"/>
<path class="st15" d="M237.7,764.6l2.8-104.4l189.6-17.1l-3,109.8L237.7,764.6z"/>
<path class="st16" d="M591.7,589c27-11.7,78.2-39.8,67-59c-26.8-46-240.5,20.3-235-46c3-36,69.1-67.3,81-78c87-78-267-15-67-105"/>
<g>
	<defs>
		
			<rect id="SVGID_00000181798730958896354340000017419337762511215502_" x="428.9" y="204.2" transform="matrix(0.7815 -0.6239 0.6239 0.7815 -43.9512 371.8862)" width="160" height="89"/>
	</defs>
	<clipPath id="SVGID_00000047774357597637590130000011309119799781862065_">
		<use xlink:href="#SVGID_00000181798730958896354340000017419337762511215502_"  style="overflow:visible;"/>
	</clipPath>
	<g style="clip-path:url(#SVGID_00000047774357597637590130000011309119799781862065_);">
		<path class="st18" d="M491,273.8l2.1-13l0,0L480,260c0,0-11.4-0.4-17.4,5c-10.1,9.2-16.4,33.3-16.4,33.3l0,0
			c0.8,0,25.1-0.9,36.1-8.6C488.9,285,491,273.8,491,273.8z"/>
		<path class="st12" d="M489.2,273.5l2.1-11.1l0,0L480,262c0,0-9.9-0.1-15.2,4.6c-8.9,8.1-14.9,28.9-14.9,28.9l0,0
			c0.7,0,21.8-1.3,31.4-8.2C487.1,283.2,489.2,273.5,489.2,273.5z"/>
		<path class="st14" d="M486.5,272.8l1.2-7.6l0,0l-7.6-0.5c0,0-6.7-0.2-10.1,2.9c-5.9,5.3-9.6,19.4-9.6,19.4l0,0
			c0.4,0,14.6-0.5,21-5C485.2,279.3,486.5,272.8,486.5,272.8z"/>
		<path class="st19" d="M486.5,271.6l1.1-6.4l0,0l-6.5-0.4c0,0-5.7-0.2-8.7,2.5c-5.1,4.6-8.3,16.6-8.3,16.6l0,0
			c0.4,0,12.5-0.5,18-4.4C485.4,277.2,486.5,271.6,486.5,271.6z"/>
		<path class="st20" d="M473.4,259.5l-0.6,0.1c-0.1,0-0.2,0.1-0.3,0.1c-0.1,0.1-0.2,0.2-0.2,0.3c0,0.1-0.1,0.2,0,0.3
			c0,0.1,0.1,0.2,0.1,0.3l15.9,20.3c0.1,0.1,0.2,0.2,0.3,0.2c0.1,0,0.2,0.1,0.3,0.1c0.1,0,0.2,0,0.3-0.1c0.1-0.1,0.2-0.1,0.2-0.2
			l0.3-0.6L473.4,259.5z"/>
		<path class="st21" d="M472.8,259.8l16.6,21.1c0,0,0.1,0.1,0.1,0.1c0,0,0.1,0,0.2,0c0.1,0,0.1,0,0.2,0c0,0,0.1-0.1,0.1-0.1l1.7-2.4
			l-15.9-20.1l-2.8,0.8c0,0-0.1,0.1-0.1,0.1c0,0-0.1,0.1-0.1,0.1c0,0.1,0,0.1,0,0.2C472.7,259.7,472.7,259.8,472.8,259.8z"/>
		<path class="st22" d="M509.4,222.1l-17.8-9.1c-0.1-0.1-0.3-0.1-0.5-0.1c-0.2,0-0.3,0-0.4,0.1l-26.2,14.2c-0.2,0.1-0.3,0.2-0.4,0.4
			c-0.1,0.2-0.1,0.3-0.1,0.5c0,0.2,0,0.3,0.1,0.5c0.1,0.1,0.2,0.3,0.4,0.4l23,12.4L509.4,222.1z"/>
		<path class="st22" d="M535,254.1l4.9,19.4c0,0.2,0,0.3,0,0.5c0,0.2-0.1,0.3-0.2,0.4l-19.7,22.4c-0.1,0.1-0.3,0.2-0.4,0.3
			c-0.2,0.1-0.3,0.1-0.5,0c-0.2,0-0.3-0.1-0.5-0.2c-0.1-0.1-0.2-0.3-0.3-0.4l-7-25.2L535,254.1z"/>
		<path class="st0" d="M540.3,253.7c20.3-20,24.1-30.7,24.1-30.7s-6.5-6.7-8.7-10c-0.3-0.4-0.5-0.6-1-1.4L483,268.9l7.9,10.6
			C490.9,279.5,521.3,272.4,540.3,253.7z"/>
		<path class="st23" d="M510.4,216.4c24-15.3,35.3-16.7,35.3-16.7s5.1,7.9,7.8,10.7c0.3,0.4,0.7,0.8,1.2,1.2L483,268.9l-8.7-10
			C474.3,258.8,487.9,230.7,510.4,216.4z"/>
		<path class="st24" d="M545.7,199.7c0,0,2.8-0.7,11.2-1.4c6.3-0.6,14.5,0.4,14.5,0.4l-17.7,13.8L545.7,199.7z"/>
		<path class="st25" d="M564.4,223c0,0,1.5-2,4.1-10.1c2-6,2.8-14.2,2.8-14.2l-17.7,13.8L564.4,223z"/>
		<path class="st21" d="M520.2,239.1c4.3,5.4,12.1,6.3,17.5,2c5.4-4.3,6.2-12.1,1.9-17.5c-4.3-5.4-12.1-6.3-17.5-2
			C516.8,225.8,515.9,233.7,520.2,239.1z"/>
		<path class="st22" d="M473.1,276.5c-0.2-0.3-0.3-0.6-0.3-0.9s0.2-0.6,0.4-0.8l25.8-23.5c0.4-0.3,0.8-0.6,1.2-0.7
			c0.5-0.2,0.9-0.2,1.4-0.2s0.9,0.2,1.4,0.4c0.4,0.2,0.8,0.5,1.1,0.9c0.3,0.4,0.5,0.8,0.6,1.3c0.1,0.5,0.2,0.9,0.1,1.4
			c-0.1,0.5-0.2,0.9-0.5,1.3c-0.3,0.4-0.6,0.8-1,1l-28.6,20c-0.3,0.2-0.6,0.3-0.9,0.2C473.6,277,473.3,276.8,473.1,276.5z"/>
		<path class="st26" d="M538.5,224.4l-17.2,13.8c1.8,2.3,4.5,3.8,7.4,4.1c2.9,0.3,5.8-0.5,8.1-2.3c2.3-1.8,3.7-4.5,4.1-7.4
			C541.2,229.7,540.4,226.7,538.5,224.4z"/>
		<path class="st27" d="M538.7,224.6l-17.2,13.8c-1.8-2.3-2.7-5.2-2.4-8.1c0.3-2.9,1.8-5.6,4.1-7.4c2.3-1.8,5.2-2.7,8.1-2.3
			C534.2,220.8,536.8,222.3,538.7,224.6z"/>
	</g>
</g>
<path class="st28" d="M242.2,789.7l-49.6-20.3l3.2,29.9c14.8,6.6,45.7,20,50.4,20.3c5.9,0.4,14.7-12.1,24.1-26.4
	c8.6-13.1,28.6-42.8,32-44.1c3.5-1.3,6.2-3.3,7.4-6c1.3-3,0.6-5.4-1.2-5.9c-1.8-0.5-3.4-4.6-3.3-7.5c0.2-2.4,9.2-14.2,8.1-15
	c-0.4-1.7-6.7,3.8-11.1,8.9c-5.5,6.3-4.9,10.8-6.8,13.7C294.1,739.6,259.4,773.2,242.2,789.7z"/>
<path class="st29" d="M233.7,784.5l-23.5-6.3c-10.4,5.8-30.9,18-29.4,20.8c1.6,2.8,26.7,9.1,39.1,11.9L233.7,784.5z"/>
<path class="st21" d="M237.2,781l-16.5,56l27.5,39.5l31.5-82L237.2,781z"/>
<path class="st28" d="M251.2,867.5l-3.5-37l-21,1.5l1.5,25.5l8.5,38.5c1.5,5,10.5,9,18,4c3.9-2.6,22-79,24.5-81.5s5-5.8,7-11
	c1.5-4,2.5-7.5,0.5-12.5c-2.1-5.2-5-4-7.5-4h0c-1.6,0-3.5,0-4.5,0.5c-0.8,0.4-0.2,0.5,0.5,1c1.5,0.5,3,0.5,4.5,2c0.5,0.5-1,4-3,9
	c-3.7,9.1-4,10.5-5.5,12.5C265.7,823,256.2,851.2,251.2,867.5z"/>
<path d="M265.2,1053.5c0-2.9,2.8-19.8,3-23.5h23c-2,6-1.6,7.7,2,10.5c4.5,3.5,21.5,6,25,6.5c2.8,0.4,3.5,5.5-3,7
	c-1.8,0.4-31.3,0.5-34.5,0.5c-4,0-5-3.5-5.5-5.5c-0.4-1.6-2,3.5-2.5,5.5C270.3,1054.3,265.2,1054,265.2,1053.5z"/>
<path d="M119.7,1000.2c2.9,0.5,19,6.4,22.6,7.2l-4.2,22.6c-5.5-3.1-7.3-3-10.7,0c-4.3,3.8-9.8,20-11,23.4c-0.9,2.7-6,2.4-6.3-4.2
	c-0.1-1.9,5.2-30.9,5.8-34c0.7-3.9,4.4-4.3,6.4-4.4c1.6-0.1-3.1-2.6-5-3.5C117.9,1005.1,119.2,1000.1,119.7,1000.2z"/>
<path class="st21" d="M153.7,954.5c-0.4-12,2.5-26.3,4-32l41.5,44.5c11,15,14.1,22.1,18,31.5l0.1,0.3c8.9,21.8,13.8,33.7-0.1,45.2
	c-4.9,4-33.5,7.5-80.5-11.5l2.5-27c7.5,2,42.5,13.2,44.5,12c2.5-1.5-5.5-14.5-16-28.5C159.6,978.2,154.2,969.5,153.7,954.5z"/>
<path class="st30" d="M157.2,922c0-2.8,0.3,0.8,1-1.5l49.5,58.5l6,11l3,7c2,5-11.5-6.5-19.5-7c-2-0.1-15.9,1.4-24-2.5
	c-10.5-5-12.4-9.3-17-18.5C149.7,956,157.2,925.5,157.2,922z"/>
<path class="st21" d="M292.2,1030h-24c0-21.5,5-56.9,1-60c-9.6-7.3-54.5,12.1-70.5,9c-9.8-1.9-23.5-6-34-23c-6.6-10.7-8.2-22.8-8-28
	l86,2.5c25,0,51.7-0.5,58,6C316.2,952.5,300.5,1002,292.2,1030z"/>
<path class="st26" d="M221.2,784l-16-6l-41,29.5c4.3,15.8,14,34.5,10.5,52.5c-2.5,12.8-22.5,46-18,70c1,5.6,21.3,2.9,27.5,5
	c19,6.5,30,1.5,58.5-5l-4.5-25.5l-10-47l22.5-3.5c-1.7-11.3-3.5-35.5-8-46.5C238.8,798,227.3,787.7,221.2,784z"/>
<path class="st31" d="M225.7,804c-1.5,3.5,2,7,2,13c0,3.8-6.5,5-8,3.5s-0.5-2.5,0.5-3.5c1.5-1.5,4.5-2.5,4,0s-4,10.5-9.5,15.5
	s-11,13-10.5,24s10.5,13.5,10.5,22.5c0,7.2-13.2,24-18,29.5"/>
<path class="st29" d="M221.2,828l7,29.5l8,36.5l6.5,36c-0.8,0.7-3.1,2-5.5,2s-8.7,1.3-11.5,2L221.2,828z"/>
<path class="st28" d="M218.2,741c-1.7-1-4.6-2.8-6.5-4.5c-3.5-3-8.3-10.6-11.5-15.5l-26,35.5l31,8.5c2.7-2.3,8-6,9.5-10
	c0.9-2.5,0.5-8.3-0.5-11L218.2,741z"/>
<path class="st19" d="M160.2,884.5c-21,7-48.5-8.5-51-30c-2.1-18.3,10.5-19.5,11.5-32.5c2-25.8,10.5-28.5,22-32
	c27.2-8.3,6-18.5,10.5-49.5c3-20.5,16.2-27.2,25-29c10-2,19,0.5,25,8.5c4,5.4-3.5,11-6,13.5s-8.5,7.2,2,19.5c9,10.5,30,16.5,20,49.5
	c-9.3,30.7-50.5,10-44.5,36S175.2,879.5,160.2,884.5z"/>
<path class="st28" d="M192.2,738c2-0.7,4.5,1.2,6,2l2,11c-3.5,1-5.5,1.2-7.5,0c-2.5-1.5-4-4-4-7S190.7,738.5,192.2,738z"/>
<path class="st32" d="M206.7,720c1-2.3,1.5-7.1-4.5-7.5c-7.5-0.5-36,12-33.5,29s15.5,31,9.5,43s-30.1,17.3-40,28
	c-6.5,7-11.5,21-10,33s7.5,27.5-7,36"/>
<path class="st33" d="M263.7,1019v11h31.5v-11c-7.5-0.7-22.8-1.6-24,0c-1.5,2,0,4,2.5,3.5s8.2-52.3,5-59c-5-10.5-22-5.5-35.5-2
	c-13.5,3.5-35.5,12-49,7c-10.8-4-25.5-18.5-27.5-34.5"/>
<path class="st34" d="M171.2,939c3-2,7-2,7.5,0s-7.5,7-7.5,14.5s4,30,17.5,44s24,20,21.5,28.5s-10.5,10-35.5,4s-28-10-29.5-7
	s-1,5,2,4c2.4-0.8-2-15,0-24l-10-2.5l-3,35l9.5,3l1.5-6.5"/>
<path class="st35" d="M252.7,785.5c8.3-8.5,24.1-20.9,27-22.5c5.5-3,6,3,0,5.5c-5.6,2.3-5.5-6.5-1.5-11.5s18.5-14.5,19.5-20
	s10-14.5,8.5-16.5s-5-0.5-4.5,1c1.1,3.4,8-1.5,11-5c2.4-2.8,5.7-5.2,7-6"/>
<path class="st36" d="M823.7,656.5c-2.8-2.1-0.8-6.3-1.5-9l-14,9c0.2,0.8,0.5,3,0,5c-0.5,2-1,3.5-2,6l-1.5,2.5l7.5,11l19-7.5
	l-0.5-15C828.5,658.5,825.7,658,823.7,656.5z"/>
<path class="st25" d="M860.7,781c3,7,13,25.5,13,45.5c0,25-7.5,86-7.5,100c0,11.2,0.5,85.5,3.5,121.5h-27
	c-5.9-42-15.2-108.1-22.2-160.2c-2.8,21.1-4.6,40.3-5.3,44.2c-1.2,7.2-5.2,79.8-3,116h-29.5c-1.7-40-5.1-121.6-5.5-128
	c-0.5-8,7.5-89,8-96.5c0.4-6,13.2-38.8,19.5-54.5l29.5,18.5l-0.3,3.4C843.2,786.7,853.5,783.2,860.7,781z"/>
<path class="st37" d="M841.2,860c-1.6-17.6-8-35.7-11-42.5l42-7c0.5,1.5,1.2,7.5,1.5,14c0.5,10-3.5,62.5-6,82.5s-1.1,63.5-0.5,77.5
	c0.5,12.5,2,47,2.5,63.5h-13.5v-19c0-11-4-55.5-5-80.5S843.2,882,841.2,860z"/>
<path class="st37" d="M803.2,904.5c-1.6-16,0.7-63.7,2-85.5c1.8,0,5.4,0.6,5,3c-0.5,3,3.5,24,6,35c2,8.8,4,24.2,4.5,31
	c-1.8,15.2-6.2,49.3-7,62.5s-1.3,70.2-1.5,97h-9v-52C803.2,988.5,805.2,924.5,803.2,904.5z"/>
<path class="st38" d="M812.7,839.5c-1.3,4.5-4.6,18.8-7,40c-3,26.5-4.5,120.5-5,136.5s-1,24-4.5,23.5s-2.4-4.1-1.5-6
	c2.5-5,14.5-1,20.5-0.5v11.5h-35.5v-11h7.5"/>
<path class="st39" d="M793.2,671.5c5.9-4.9,12-9.8,15-11l-3,5l2.5,5.5l9,11l-16,32.5h-29C775.2,708.2,784.7,678.5,793.2,671.5z"/>
<path class="st19" d="M860.7,670.7c-5.4-4.1-16.1-8.2-20.6-9.7l-9.5-2.5c-2.3,2.6-12.4,6-19,6.5c-7,0.5-1-6-4-4.5
	c-3.7,1.8-16,14-16,27.5c0,13.9,1,20.1,1,34.4c0,14.3,4.3,28.6,4.3,41.8c0,13.2-16.1,54.5-12.9,58.3c3.2,3.9,4.8-1.1,14.5,0
	c9.6,1.1,73.5-4.3,75.6-7c3.1-4,1-29.9-2-60l-8-30.5h26c-1.5-7.5-3-11-4-15.5s-2.4-8.6-6-17.5C874.8,678.9,867.2,675.5,860.7,670.7z
	"/>
<path class="st40" d="M837.2,1037.5v8.5h36.5v-12.5c-12,0-22.5-1-25,2.5c-0.9,1.2,0,3.4,2,3.5c8.5,0.5,7-5.5,7-14.5
	s-5.8-105.5-8.5-130c-3.5-31.5-11-62-14-68.5c-2-4.4-4.8-7.5-6-8.5"/>
<path class="st36" d="M789.2,623c0.4-4.4,1-21.8,3.5-25.5l36.5-4l7.5,29.5l-9,24.5c-5.7,1.2-12.1,9-18.5,9c-8,0-8-4.5-13-11.5
	c-4-5.6-5.2-9.3-3.5-13.5h-7C785.7,630.5,788.8,627.4,789.2,623z"/>
<path class="st41" d="M781.5,598c2.1-6.6,7.3-8.5,25-12.2c20.8-3.8,33.3,6.6,38.5,17c7.6,15.2,7.3,22.6,1,33
	c-4.1,6.7-23.9,20.7-23.9,17.9l-3.1-14.1c0-1.9,10.6-3,11.4-7.5c1-5.7,0-9.4-4.2-10.4c-3.3-0.8-7.3,8.5-7.3,4.7
	c-0.3-4.7-1.5-13.6-3.1-11.3c-2.1,2.8-22.9-0.9-29.1-2.8C780.4,610.3,779.7,603.5,781.5,598z"/>
<path class="st42" d="M798.2,594c3-1,4-7.5,0-9.5c-2.7-1.4-7,0.5-7.5,5s0,9.5,5.5,10.5s19.5-5.5,26-4s19,10,18.5,23
	s-5.1,21.4,0,23.5c5,2,7-2,9-4.5"/>
<circle class="st43" cx="146.2" cy="557.5" r="2.5"/>
<circle class="st44" cx="155.2" cy="556.5" r="2.5"/>
<circle class="st25" cx="164.2" cy="555.5" r="2.5"/>
<rect x="631.1" y="540.5" transform="matrix(0.1256 -0.9921 0.9921 0.1256 -87.8466 1267.3359)" class="st22" width="87.8" height="286"/>
<rect x="601.5" y="514.2" transform="matrix(0.1256 -0.9921 0.9921 0.1256 -94.4101 1227.4659)" class="st45" width="95.3" height="306.1"/>
<path class="st36" d="M783.2,752.2c4-5.7,2.4-3.5,6.5-10.2l-4.2-0.5l-7.3-1l-17-2.5c-15.5-1.5-52-8-72.5-9
	c-12.5-0.6-12.6-3.9-16-6.5s-4-3-5-1c-0.9,1.8,4.9,6.1-2.5,5c-3.5-0.5-13.5-2.2-17-2.3c-7-0.3-2,2.7,4.5,5.8c4.5,2.2,12.5,9,23,6.5
	c4-0.9,59.3,12.1,87,19C771.6,757.7,780,756.6,783.2,752.2z"/>
<path class="st46" d="M770.7,757c-1-3.5-4.7-11-11.7-12.7c-8.8-2-15.5-2.5-15.5,1.5c0,4.1,10.4,7.1,10,3.5
	c-0.4-3.5-8.4-10.6-19.2-10.6c-10.9,0-14.2,4.1-31.3,2c-17.1-2-22.6-7.6-21.7-9.6c0.8-2,5.4-2,5.4,0c0,2-3.8,7.6-9.6,5.1
	c-5.8-2.5-1.7-5.1-8.8-5.1s-7.9,0-10.4-4.1c-2-3.2-10.3-6.8-14.2-8.1"/>
<path class="st47" d="M864.2,725l-9-25c0.5,7.3,1.6,24.2,2,33c0.5,11,1,39.5-4.5,56c-2.6,7.9-15.3,26.2-21,32c3.5-0.3,11.3-1,14.5-1
	c4,0,26-4,28-4.5s1.5-8,1.5-14c0-4.8-2.3-32.7-3.5-46L864.2,725z"/>
<path class="st36" d="M896.2,773c3.8-4.9-2.5-30-6.5-48h-25.5l8,30.5c-2-0.8-18-4-30.5-6.5c-17.5-3.5-20-8.5-23-12.5
	c-3.4-4.6-5-9-5.5-5.5c-0.5,3.5-0.5,5-1.5,10c-0.6,3.1-20,1-21,1.5c-3,1.5,5,5.5,17,5.5s11.4,6.8,42.5,17.5
	C880.7,776,892.7,777.5,896.2,773z"/>
<path class="st48" d="M829.7,677.7c2.5,1.5,5.8,4.2,8.1,7.7c1.7,2.5,3.8,9.4,0.9,10.4c-3.1,1.1-5.6-4.6-5.5-6.2
	c0.4-5.3,7.6,0.3,10,3.9c2.3,3.4,5.3,9.1,1,14.7s-3.6,11.2-1.3,18.5c1.9,5.8,5.1,13.5,5.8,15.3"/>
<path class="st49" d="M31.9,1029.1l-10.5-22.4l36.4-24.5l-23.1,32.2L31.9,1029.1z"/>
<path class="st50" d="M42.4,1019.3l-10.5,9.8l2.8-14.7L42.4,1019.3z"/>
<path class="st22" d="M70,963.9l-68.9,44.1l21.7,1.4l29.7-22.1l-17.8,27l16.8,11.9L70,963.9z"/>
</svg>
